<svg version="1.2" xmlns="http://www.w3.org/2000/svg" viewBox="0 0 795 211" width="795" height="211">
	<title>Objeto Inteligente de Vetor</title>
	<defs>
		<clipPath clipPathUnits="userSpaceOnUse" id="cp1">
			<path d="m361.24 220.37h-293.34c-22.47 0-40.69-18.22-40.69-40.7v-101.39c0-22.48 18.22-40.7 40.69-40.7h293.34c22.48 0 40.7 18.22 40.7 40.7v101.39c0 22.48-18.22 40.7-40.7 40.7z"/>
		</clipPath>
		<clipPath clipPathUnits="userSpaceOnUse" id="cp2">
			<path d="m787.05 557h-793.7v-1190.55h793.7z"/>
		</clipPath>
	</defs>
	<style>
		.s0 { fill: #72f58b } 
	</style>
	<g id="Modo de isolamento">
		<g id="&lt;Clip Group&gt;" clip-path="url(#cp1)">
		</g>
		<g id="&lt;Clip Group&gt;" clip-path="url(#cp2)">
			<g id="&lt;Group&gt;">
				<g id="&lt;Group&gt;">
					<g id="&lt;Group&gt;">
						<g id="&lt;Group&gt;">
							<path id="&lt;Compound Path&gt;" fill-rule="evenodd" class="s0" d="m179.3 37q-0.2-0.2-0.4-0.4-0.4-0.6-0.7-1.3-0.2-0.6-0.2-1.3c0-2.3 1.7-4.1 3.8-4.1 1.3 0 2.4 0.7 3.1 1.7 0.7-1 1.8-1.7 3.1-1.7 2.1 0 3.8 1.8 3.8 4.1q0 0.7-0.3 1.3-0.3 0.9-0.8 1.5 0 0-0.1 0l-5.3 5.7q-0.2 0.2-0.4 0.2-0.2 0-0.4-0.2zm0.3-1.1q0.2 0.2 0.3 0.3l0.1 0.1 4.8 5.1 5.1-5.3q0.5-0.5 0.7-1.2 0.1-0.5 0.1-1c0-0.8-0.2-1.6-0.8-2.1-0.5-0.6-1.2-0.9-2-0.9-1.1 0-2.1 0.7-2.6 1.8-0.1 0.2-0.2 0.3-0.5 0.3-0.2 0-0.4-0.1-0.5-0.3-0.4-1.1-1.4-1.8-2.5-1.8-0.8 0-1.5 0.3-2 0.9-0.6 0.5-0.9 1.3-0.9 2.1q0 0.5 0.2 1 0.2 0.6 0.5 1z"/>
							<path id="&lt;Compound Path&gt;" fill-rule="evenodd" class="s0" d="m201.6 48.8v5.2q0 0.1 0 0.1v0.4c0 0.4-0.3 0.7-0.7 0.7-0.5 0-1.4 0.1-2.5 0.4l-0.2 0.1q0 0 0 0c-3.3 0.9-10 2.7-13.8 3.7q0 0 0 0-0.3 0.1-0.6 0.1-0.5 0-0.9-0.2h-0.1q-0.1 0-0.2-0.1l-10.5-8.1q-0.3-0.2-0.5-0.4 0 0-0.1-0.1c-0.4-0.4-0.7-1.1-0.7-1.8 0-1.3 1-2.4 2.3-2.5 0.2-0.1 0.4-0.1 0.7-0.1q0.2 0.1 0.3 0.1 0.2 0.1 0.4 0.2 0.1 0 0.2 0.1 0.1 0 0.1 0l1.1 0.9 6.3 4.4q0.1 0 0.3 0c0.3-0.1 1.2-0.3 4-1.1l0.1-0.1q0.8-0.2 1.5-0.4l1.5-0.4c0.3-0.2 0.5-0.6 0.5-1 0-0.6-0.3-1.1-0.9-1.2h-4c-0.9 0-1.7-0.9-1.7-1.9 0-1 0.8-1.8 1.7-1.8h4.4c0.5 0 1.2 0 2.1 0 2.1 0 3.5 0.8 4.6 1.7q0.4 0.3 0.8 0.6c1.2 1 2.3 1.8 3.8 1.8 0.2 0 0.4 0.1 0.6 0.2q0.1 0.3 0.1 0.5zm-1.3 5.1v-0.6-4c-1.6-0.2-2.8-1.1-3.9-2q-0.4-0.3-0.8-0.6c-1-0.8-2.2-1.5-3.9-1.5q-1.3 0-2.1 0h-4.4c-0.2 0-0.5 0.3-0.5 0.6 0 0.4 0.3 0.6 0.5 0.6h4.1q0.1 0 0.1 0c1.2 0.2 2 1.3 2 2.5 0 0.9-0.5 1.7-1.2 2.1q-0.1 0.1-0.2 0.1l-1.6 0.4q-0.7 0.2-1.5 0.4l-0.1 0.1q-3.6 1-4.1 1.1 0 0-0.1 0-0.4 0.1-0.8 0-0.1-0.1-0.2-0.1l-6.4-4.5q0 0 0 0l-1.1-0.8q-0.1 0-0.1 0 0-0.1-0.1-0.1-0.1-0.1-0.1-0.1-0.1 0-0.2 0-0.1 0-0.3 0-0.1 0-0.1 0c-0.6 0.1-1.1 0.6-1.1 1.3 0 0.4 0.1 0.7 0.4 1q0 0 0 0 0.1 0.2 0.3 0.2 0 0.1 0.1 0.1l10.4 8v0.1q0.4 0.1 0.8 0c3.7-1 10.5-2.8 13.7-3.7l0.2-0.1q0 0 0.1 0 1.3-0.3 2.2-0.4 0-0.1 0-0.1z"/>
						</g>
						<g id="&lt;Group&gt;">
							<path id="&lt;Compound Path&gt;" fill-rule="evenodd" class="s0" d="m147.3 55.1l-9.9 6.4-2.4-3.7q-0.9-0.2-1.8-0.7-0.7 0.4-1.5 0.6l-2.3 3.9-10.1-6.1 2.1-3.5c-0.6-1.5-0.7-3.1-0.6-4.7q0-3.1 0.2-6.3c0.1-1.4 1-2.3 2.2-2.4q0.6 0 1.1 0.3c-0.3-1.3 0.3-2.2 2.2-2.9q0 0 0-0.1c-0.1-1 0.1-1.7 1.1-2.3 0.9-0.6 1.9-0.7 2.8 0.4 0 0 0.3 0.3 0.3 0.3 0.1-0.7 0.5-1.1 1-1.3q0.2-0.1 0.5-0.2 0.8-0.4 1.9 0.1c0.4 0.1 0.9 0.5 1 1.1 0 0 0.2-0.3 0.2-0.3 0.9-1.1 1.9-1 2.8-0.5 1 0.6 1.3 1.3 1.2 2.3q0 0.1 0 0.1c2.1 0.7 2.6 1.6 2.2 3.1q0.5-0.3 1.2-0.3c1.2 0 2.2 0.9 2.3 2.2q0.3 3.2 0.5 6.4c0.1 1.6 0.1 3.2-0.4 4.7zm-9.4 5.3l8.1-5.3-1.5-2.3-0.2-0.3-0.5-0.8q0.1-0.3 0.2-0.6 0.1-0.4 0.2-0.7 0.1-0.7 0.1-1.4c-0.1-2.7-0.3-5.5-0.5-8.2 0-0.7-0.5-1.2-1.1-1.2-0.6 0-1.1 0.4-1.2 1.2-0.1 1-0.1 2-0.2 3-0.1 0.4 0 1-0.5 1-0.3 0-0.7-0.3-0.9-0.6q-3.1-4.7-6.2-9.4c-0.3-0.5-0.6-0.9-1.3-0.8-0.6 0.1-1.1 0.8-0.9 1.4 0.1 0.3 0.3 0.5 0.4 0.8q1.8 2.8 3.7 5.5c0.2 0.4 0.4 0.8 0 1.1-0.5 0.3-0.8 0-1-0.4q-2.4-3.6-4.7-7.2-0.7-1-1.5-0.7c-0.8 0.4-0.9 1.1-0.4 1.9q2.3 3.5 4.6 7c0.2 0.4 0.3 0.6 0.2 1-0.1 0.3-0.4 0.4-0.6 0.3-0.4-0.2-0.5-0.4-0.7-0.7q-1.9-3-3.9-6c-0.5-0.7-1-0.9-1.6-0.6-0.6 0.4-0.8 0.9-0.3 1.7 1.1 1.8 2.2 3.5 3.3 5.3q0.4 0.5 0.8 1.1c0.2 0.3 0.9 1.2 0.4 1.6-0.6 0.4-1.1-0.6-1.4-1q-0.4-0.6-0.8-1.2-0.7-1.1-1.5-2.3c-0.2-0.3-0.4-0.7-0.8-0.8-0.3-0.2-0.8-0.2-1 0-0.3 0.2-0.5 0.4-0.6 0.7 0 0.5 0.3 1 0.5 1.2q1.6 2.6 3.2 5c1.1 1.6 2.1 3.2 3.2 4.8 0.8 1.2 1.7 2.1 2.9 2.7q0.4 0.1 0.8 0.3 0.4 0.1 0.7 0.2l0.7 1 0.2 0.3zm1.9-18.6q0.1 0.1 0.3 0.4 0 0 0 0 0.1-0.5 0.1-0.9-0.2 0.2-0.4 0.5zm-4.2-6.4q0.6 1 1.3 2 0.5-0.7 0.9-1.4c0.5-0.8 0.3-1.5-0.5-1.8q-0.8-0.4-1.4 0.7-0.2 0.2-0.3 0.5zm-3.6 20.9q-0.5-0.4-1-0.9-0.7-0.8-1.3-1.7-3.1-4.7-6.1-9.4c-0.7-1.1-0.6-2.5 0.3-3.4 0.1-0.2 0.3-0.3 0.4-0.4-0.2-0.5-0.6-0.8-1.1-0.8-0.6 0.1-1.1 0.6-1.1 1.3 0 2.7-0.1 5.5-0.1 8.2q0 0.7 0.2 1.4 0 0.4 0.2 0.7 0.1 0.3 0.2 0.6l-0.5 0.8-0.2 0.4-1.4 2.3 8.3 5 1.5-2.5 0.2-0.3 0.6-1.1q0.4-0.1 0.8-0.2 0 0 0.1 0zm5.7-17.7q0.6 1 1.3 2 0.6-1 1.2-2c0.4-0.8 0.3-1.3-0.4-1.7-0.6-0.3-1.1-0.1-1.6 0.7q-0.3 0.5-0.5 1z"/>
							<path id="&lt;Compound Path&gt;" fill-rule="evenodd" class="s0" d="m141.2 48.2q0 0.4-0.2 0.9-0.2 0.6-0.6 1l-4 4.2-3.9-4.1q-0.1-0.1-0.2-0.3-0.3-0.3-0.5-0.7 0 0 0-0.1l0.4-0.1-0.4 0.1 0.4-0.1-0.4 0.1q0 0 0 0-0.2-0.5-0.2-0.9 0-0.5 0.2-1c0.4-1.1 1.3-1.8 2.4-1.8 0.9 0 1.7 0.5 2.2 1.3 0.5-0.8 1.3-1.3 2.2-1.3 1.4 0 2.6 1.2 2.6 2.8zm-0.9 0c0-1.1-0.8-1.9-1.7-1.9-0.7 0-1.3 0.4-1.6 1.1-0.1 0.2-0.3 0.4-0.6 0.4-0.3 0-0.5-0.2-0.6-0.4-0.3-0.7-0.9-1.1-1.6-1.1-0.7 0-1.3 0.5-1.6 1.2q-0.1 0.3-0.1 0.7 0 0.3 0.1 0.6 0 0 0.1 0.1 0.1 0.3 0.2 0.5 0.1 0.1 0.2 0.2h0.1l3.2 3.4 3.4-3.5q0.2-0.3 0.4-0.7 0.1-0.3 0.1-0.6z"/>
						</g>
						<g id="&lt;Group&gt;">
							<path id="&lt;Compound Path&gt;" fill-rule="evenodd" class="s0" d="m249.7 45.6c0 6.8-11.6 15-12.1 15.3q-0.1 0.1-0.3 0.1-0.2 0-0.4-0.1c-0.5-0.3-12-8.5-12-15.3 0-2.9 1.7-5.2 4.4-5.9 2.5-0.7 5.9 0 8 2.8 2-2.7 5.3-3.5 7.9-2.8 2.8 0.7 4.5 3 4.5 5.9zm-1.3 0c0-2.4-1.3-4.1-3.6-4.7-2.3-0.6-5.4 0.3-7 3-0.1 0.2-0.3 0.4-0.5 0.4-0.2 0-0.4-0.2-0.6-0.4-1.3-2.3-3.6-3.2-5.5-3.2q-0.8 0-1.5 0.2c-2.2 0.6-3.6 2.3-3.6 4.7 0 2.5 2 5.8 5.7 9.4 2.3 2.2 4.6 4 5.5 4.6 0.9-0.6 3.2-2.4 5.5-4.6 3.7-3.6 5.6-6.9 5.6-9.4z"/>
							<path id="&lt;Compound Path&gt;" fill-rule="evenodd" class="s0" d="m245.8 30.9c6.3 0 11.4 5.1 11.4 11.4 0 0.6-0.4 1.1-1 1.1-0.6 0-1.1-0.5-1.1-1.1 0-5.1-4.1-9.3-9.3-9.3-0.6 0-1-0.4-1-1 0-0.6 0.4-1.1 1-1.1zm0 0.6c-0.2 0-0.4 0.2-0.4 0.5 0 0.2 0.2 0.4 0.4 0.4 5.5 0 9.9 4.5 9.9 9.9 0 0.3 0.2 0.5 0.5 0.5 0.2 0 0.4-0.2 0.4-0.5 0-5.9-4.8-10.8-10.8-10.8z"/>
							<path id="&lt;Compound Path&gt;" fill-rule="evenodd" class="s0" d="m245.7 36.7c-0.6 0-1-0.5-1-1 0-0.6 0.4-1.1 1-1.1 4.3 0 7.8 3.5 7.8 7.9 0 0.5-0.4 1-1 1-0.6 0-1.1-0.5-1.1-1 0-3.2-2.5-5.8-5.7-5.8zm0-0.6c3.5 0 6.3 2.9 6.3 6.4 0 0.2 0.2 0.4 0.5 0.4 0.2 0 0.4-0.2 0.4-0.4 0-4-3.2-7.3-7.2-7.3-0.3 0-0.5 0.2-0.5 0.5 0 0.2 0.2 0.4 0.5 0.4z"/>
						</g>
						<g id="&lt;Group&gt;">
							<path id="&lt;Compound Path&gt;" fill-rule="evenodd" class="s0" d="m279.7 42.9c0-3.3 1.9-5.8 5-6.7 2.7-0.7 6.6 0.1 9 3.4 2.1-3.1 6-4.1 8.9-3.3 3.1 0.8 5 3.3 5 6.6 0 7.6-13.1 16.9-13.6 17.3q-0.2 0.1-0.3 0.1-0.2 0-0.4-0.1c-0.5-0.4-13.6-9.7-13.6-17.3zm1.2 0c0 6.4 10.7 14.6 12.8 16.1 2-1.5 12.8-9.7 12.8-16.1 0-2.8-1.6-4.8-4.2-5.5-2.7-0.7-6.4 0.3-8.1 3.5-0.1 0.2-0.3 0.3-0.5 0.3-0.2 0-0.4-0.1-0.5-0.3-1.6-2.7-4.2-3.8-6.5-3.8q-0.9 0-1.7 0.3c-2.6 0.7-4.1 2.7-4.1 5.5z"/>
							<path id="&lt;Compound Path&gt;" fill-rule="evenodd" class="s0" d="m292.1 50.6h-2.5v-3.1h2.5v-2.7h3.1v2.7h2.6v3.1h-2.6v2.7h-3.1zm0.8-0.8v2.7h1.5v-2.7h2.6v-1.5h-2.6v-2.7h-1.5v2.7h-2.6v1.5z"/>
						</g>
					</g>
					<g id="&lt;Group&gt;">
						<path id="&lt;Compound Path&gt;" fill-rule="evenodd" class="s0" d="m404.3 38.2c3.1 0 5.6 2.6 5.6 5.6v10.2c0 3.1-2.6 5.7-5.7 5.7h-3.3c-3.1 0-5.7-2.6-5.7-5.7v-10.2c0-3.1 2.6-5.6 5.7-5.6h0.8q0-0.1 0.1-0.1 0 0 0-0.1 0-0.1 0.1-0.3l0.1-0.1q0-0.2 0.1-0.3v-0.1q0.1-0.2 0.2-0.4l0.1-0.1q0.1-0.2 0.2-0.4 0 0 0 0 0.1-0.3 0.3-0.5v-0.1q0.2-0.1 0.3-0.3l0.1-0.1q0.1-0.3 0.3-0.5 0.2-0.2 0.4-0.4l0.1-0.1q0.2-0.2 0.4-0.4 0.2-0.2 0.5-0.4 0-0.1 0.1-0.1 0.2-0.2 0.4-0.3l0.1-0.1q0.3-0.2 0.6-0.4l0.1-0.1q0.2-0.1 0.5-0.2l0.1-0.1q0.4-0.2 0.7-0.3 0 0 0.1 0v-0.1q0.3-0.1 0.6-0.2l0.2-0.1q0.4-0.1 0.8-0.2 0.1 0 0.3 0c0.6 0 1.1 0.5 1.1 1.2 0 0.4-0.3 0.9-0.7 1q-0.1 0.1-0.2 0.1 0 0 0 0c-0.7 0.2-3.8 1.1-5.5 4.6zm4.5 10.2h-12.4v5.6c0 2.5 2 4.6 4.5 4.6h3.3c2.5 0 4.6-2.1 4.6-4.6zm0.7-15.8q0 0 0.1 0 0-0.1 0-0.1 0 0 0 0-0.4 0-0.7 0.2h-0.2q-0.3 0.1-0.6 0.2l-0.1 0.1q-0.3 0.1-0.5 0.3h-0.2q-0.2 0.1-0.4 0.3h-0.1q-0.3 0.2-0.5 0.4h-0.1q-0.2 0.2-0.4 0.3-0.1 0.1-0.1 0.1-0.2 0.2-0.4 0.4h-0.1q-0.1 0.2-0.3 0.3l-0.1 0.1q-0.2 0.2-0.3 0.4-0.2 0.2-0.3 0.4l-0.1 0.1q-0.1 0.2-0.2 0.3l-0.1 0.1q-0.1 0.2-0.2 0.4h-0.1q-0.1 0.2-0.1 0.4l-0.1 0.1q-0.1 0.1-0.2 0.3v0.1q-0.1 0.1-0.1 0.3l-0.1 0.1q0 0.1-0.1 0.3 0 0 0 0 0 0 0 0-0.1 0.3-0.1 0.5c-0.1 0.2-0.3 0.4-0.6 0.4h-1.2c-2.5 0-4.5 2-4.5 4.5v3.4h12.4v-3.4c0-2.5-2.1-4.5-4.6-4.5h-0.7c-0.2 0-0.4-0.1-0.5-0.3-0.1-0.1-0.1-0.3-0.1-0.5 1.8-4.6 5.8-5.8 6.6-6z"/>
						<path id="&lt;Compound Path&gt;" fill-rule="evenodd" class="s0" d="m402.6 40c1 0.1 1.8 0.9 1.8 1.8v3.4c0 0.9-0.9 1.8-1.8 1.8-1 0-1.8-0.9-1.8-1.8v-3.4c0-1 0.8-1.8 1.8-1.8q0 0 0 0zm0 1.2q-0.1 0-0.1 0c-0.3 0-0.6 0.3-0.6 0.6v3.4c0 0.3 0.3 0.6 0.7 0.6 0.3 0 0.6-0.3 0.6-0.6v-3.4c0-0.3-0.3-0.6-0.6-0.6z"/>
					</g>
					<g id="&lt;Group&gt;">
						<path id="&lt;Compound Path&gt;" fill-rule="evenodd" class="s0" d="m562.7 44.2c0 0.4 0.3 0.8 0.7 0.9h3.9q0 0 0.1 0h1.7c0.5 0 1.1 0 2 0 2 0 3.4 0.8 4.5 1.6q0.4 0.3 0.8 0.5c1.2 0.9 2.2 1.7 3.7 1.7 0.2 0 0.4 0.1 0.6 0.3q0.1 0.2 0.1 0.5v4.7q0 0.1 0 0.1v0.4c0 0.4-0.3 0.7-0.7 0.7-0.5 0-1.4 0.1-2.4 0.4l-0.2 0.1q-0.1 0-0.1 0c-3.5 0.9-11.1 2.8-13.3 3.4q-0.4 0-0.6 0-0.5 0-1-0.1 0 0 0 0l-0.1-0.1q-0.1 0-0.2-0.1l-10.1-7.3q-0.3-0.2-0.5-0.4-0.1 0-0.1 0c-0.5-0.5-0.7-1.1-0.7-1.8 0-1.3 1-2.4 2.2-2.5 0.3 0 0.5-0.1 0.8 0q0.2 0 0.3 0.1 0.2 0 0.4 0.1 0.1 0.1 0.2 0.1 0 0 0.1 0.1l1.1 0.8 6.1 3.9q0.1 0 0.2 0c0.3-0.1 1.2-0.3 3.8-1h0.1q0.8-0.2 1.5-0.4l0.5-0.1c0.4-0.1 0.8-0.2 1-0.3 0.2-0.2 0.4-0.5 0.4-0.8 0-0.4-0.3-0.8-0.8-0.9h-3.8q-0.1 0-0.1 0h-1.7q-0.8 0-2.1 0c-2 0-3.4-0.8-4.5-1.5q-0.4-0.3-0.8-0.6c-1.2-0.9-2.2-1.6-3.6-1.6-0.3 0-0.5-0.1-0.6-0.3q-0.2-0.3-0.1-0.6v-4.7q-0.1 0 0-0.1v-0.4c0-0.4 0.3-0.7 0.7-0.7 0.5 0 1.3-0.1 2.4-0.4l0.2-0.1q0 0 0.1 0c2.2-0.5 6.7-1.7 13.2-3.3l0.1-0.1q0 0 0 0c0.5-0.1 1 0 1.5 0.2h0.1q0.1 0 0.2 0.1l10.1 7.3q0.3 0.2 0.6 0.4 0 0 0 0.1c0.5 0.4 0.8 1.1 0.8 1.7 0 1.3-1 2.4-2.3 2.5q-0.4 0.1-0.8 0-0.1 0-0.3 0-0.2-0.1-0.4-0.2-0.1 0-0.2-0.1 0 0 0 0l-1.1-0.8-6.1-4q-0.1 0-0.3 0-0.5 0.1-3.8 1h-0.1q-0.7 0.3-1.5 0.4c-0.6 0.2-1.2 0.4-1.4 0.4-0.3 0.2-0.4 0.5-0.4 0.8zm6.4 3.2c1.1 0.2 1.8 1.2 1.8 2.3 0 0.9-0.5 1.7-1.2 2.1q-0.1 0.1-0.2 0.1c-0.1 0-0.5 0.1-1.1 0.3l-0.4 0.1q-0.7 0.2-1.5 0.4h-0.1c-2.4 0.6-3.6 1-3.9 1q-0.1 0-0.2 0.1-0.4 0-0.8-0.1-0.1 0-0.2-0.1l-6.2-4q0 0 0 0l-1.1-0.8q0 0 0 0-0.1-0.1-0.1-0.1-0.1 0-0.2-0.1 0 0-0.1 0-0.2 0-0.3 0 0 0-0.1 0c-0.5 0.1-1 0.5-1 1.1q0 0.4 0.3 0.7 0.1 0.1 0.1 0.1 0.1 0.1 0.2 0.1 0.1 0.1 0.1 0.1l10.1 7.3c0.3 0.1 0.5 0.1 0.7 0.1h0.1c2.2-0.6 9.7-2.5 13.2-3.4l0.2-0.1q0 0 0.1 0 1.2-0.3 2-0.4v-0.4-3.5c-1.5-0.2-2.6-1.1-3.7-1.9q-0.4-0.3-0.8-0.5c-1-0.7-2.1-1.3-3.7-1.3-0.8 0-1.5 0-2 0q0 0 0 0 0 0 0 0 0 0.2 0 0.4 0 0.1 0 0.3 0 0 0 0 0 0.1 0 0.1zm-7.9-3.2c0-0.9 0.5-1.7 1.3-2.1q0 0 0.1-0.1c0.1 0 0.8-0.1 1.6-0.4q0.7-0.1 1.4-0.3l0.1-0.1c2.4-0.6 3.7-0.9 4-1q0 0 0.1 0 0.5-0.1 0.8 0 0.1 0.1 0.2 0.1l6.3 4.1q0 0 0 0l1.1 0.8q0 0 0 0 0 0 0.1 0 0.1 0.1 0.1 0.1 0.1 0 0.1 0 0.2 0 0.4 0 0 0 0 0c0.6-0.1 1-0.5 1-1.1q0-0.4-0.3-0.7 0 0 0 0-0.1-0.1-0.3-0.2 0 0-0.1-0.1l-0.4-0.3-9.6-7h-0.1q-0.3-0.1-0.7 0c-6.5 1.6-11 2.7-13.3 3.3l-0.1 0.1q-0.1 0-0.1 0-1.3 0.3-2.1 0.4v0.4 3.6c1.6 0.2 2.7 1 3.8 1.8q0.3 0.3 0.7 0.6c1 0.6 2.1 1.3 3.7 1.3q1.3 0 2.1-0.1h4.2c0.2 0 0.4-0.1 0.4-0.3 0-0.2-0.2-0.4-0.4-0.4q0 0 0 0h-4q0 0-0.1 0c-1.1-0.2-2-1.2-2-2.4z"/>
					</g>
					<g id="&lt;Group&gt;">
						<path id="&lt;Compound Path&gt;" fill-rule="evenodd" class="s0" d="m503.5 54.5h-8.2q-0.2 0-0.4-0.2-0.1-0.1-0.1-0.4c0-4.3 2.5-6.6 2.7-6.6 0.1-0.2 0.4-0.2 0.6-0.1 2.8 2.3 5.8 0.1 5.9 0 0.2-0.1 0.5-0.1 0.6 0.1 0.7 0.6 1.2 1.4 1.6 2.1q0.2 0 0.5 0.1c2.8 2.3 5.7 0.1 5.8 0 0.2-0.1 0.4-0.1 0.5 0 0.8-1.5 1.6-2.2 1.7-2.2 0.1-0.2 0.4-0.2 0.6-0.1 2.8 2.3 5.8 0.1 5.9 0 0.2-0.1 0.4-0.1 0.6 0.1 2.6 2.4 2.5 6.5 2.5 6.7 0 0.2-0.2 0.5-0.5 0.5h-8.3c0.2 1 0.2 1.7 0.2 1.8 0 0.2-0.3 0.4-0.5 0.4l-11.4 0.1q-0.2-0.1-0.3-0.2-0.2-0.2-0.2-0.4 0.1-0.9 0.2-1.7zm10.3-4.3c0.8 1 1.3 2.2 1.5 3.2h8c-0.1-1-0.4-3.5-1.9-5.1-1 0.6-3.7 1.9-6.4 0-0.3 0.4-0.8 1-1.2 1.9zm-9.4 5.5h10.2c0-1-0.3-3.5-1.8-5.1-1 0.6-3.7 1.9-6.4 0-0.6 0.7-1.8 2.4-2 5.1zm-0.7-2.3c0.5-1.5 1.2-2.6 1.7-3.2-0.3-0.7-0.7-1.3-1.2-1.9-1 0.6-3.7 1.9-6.4 0-0.5 0.7-1.8 2.4-2 5.1z"/>
						<path id="&lt;Compound Path&gt;" fill-rule="evenodd" class="s0" d="m497.5 38.6c0.9-0.9 2.2-1.4 3.5-1.4 2.4 0 4.4 1.7 4.7 4.1q0.2-0.3 0.4-0.4c0.9-1 2.1-1.5 3.4-1.5 1.6 0 3 0.8 3.9 2 0.1-1.1 0.6-2.1 1.3-2.8 0.9-0.9 2.2-1.4 3.5-1.4 2.6 0 4.8 2.1 4.8 4.8 0 1.3-0.5 2.5-1.4 3.4-0.9 0.9-2.2 1.4-3.4 1.4-1.6 0-3-0.7-3.9-1.9-0.1 1.1-0.6 2-1.4 2.8-0.9 0.9-2.1 1.4-3.4 1.4-2.4 0-4.4-1.8-4.8-4.1q-0.1 0.2-0.3 0.4c-0.9 0.9-2.2 1.4-3.4 1.4-2.7 0-4.9-2.1-4.9-4.8 0-1.3 0.5-2.5 1.4-3.4zm16.8 3.4c0 2.1 1.7 3.8 3.9 3.8 1 0 1.9-0.4 2.6-1.1 0.8-0.7 1.2-1.7 1.2-2.7 0-2.1-1.7-3.8-3.8-3.8-1.1 0-2 0.4-2.7 1.1-0.8 0.7-1.2 1.7-1.2 2.7zm-8.6 2.3c0 2.1 1.7 3.8 3.8 3.8 1 0 2-0.4 2.7-1.1 0.7-0.7 1.1-1.7 1.1-2.7 0-2.1-1.7-3.8-3.8-3.8-1 0-2 0.4-2.7 1.1-0.7 0.7-1.1 1.7-1.1 2.7zm-7.4-5c-0.8 0.7-1.2 1.7-1.2 2.7 0 2.1 1.7 3.8 3.9 3.8 1 0 1.9-0.4 2.7-1.1 0.7-0.7 1.1-1.7 1.1-2.7 0-2.1-1.7-3.8-3.8-3.8-1.1 0-2 0.4-2.7 1.1z"/>
					</g>
					<g id="&lt;Group&gt;">
						<path id="&lt;Compound Path&gt;" fill-rule="evenodd" class="s0" d="m364.5 45.6c0 7.7-6 13.9-13.6 14.3h-1.4c-7.6-0.4-13.5-6.7-13.5-14.3 0-7.6 5.9-13.9 13.5-14.3q0 0 0 0h1.4c7.6 0.3 13.6 6.6 13.6 14.3zm-12-13c1.9 1.7 3.5 3.9 4.5 6.3q1.7-0.7 3.3-1.9c-2.1-2.4-4.8-3.9-7.8-4.4zm-1.7 7.7q2.7-0.1 5.2-1c-1.1-2.6-2.9-4.9-5.2-6.7zm0 5.2h6.4q-0.1-2.6-0.9-5.1-2.7 1-5.5 1zm0 5.2q2.7 0 5.3 0.9 0.9-2.4 1-5h-6.3zm-10.4-13.8q1.4 1.1 3.1 1.9c1-2.3 2.5-4.4 4.4-6.1-2.9 0.5-5.5 2-7.5 4.2zm-3.3 8.7h5q0-3 1-5.7-1.8-0.9-3.4-2.1c-1.7 2.3-2.6 5-2.6 7.8zm6.2 6.6q-1-2.6-1.2-5.5h-5c0.2 2.7 1.3 5.3 3 7.4q1.5-1.1 3.2-1.9zm4.6 6.4q-2.6-2.3-4.1-5.4-1.6 0.7-2.9 1.7c1.9 2 4.3 3.3 7 3.7zm1.8-6.7q-2.5 0.1-4.9 0.9c1.1 2.3 2.8 4.4 4.9 5.9zm0-5.1h-6.5q0.2 2.7 1.2 5.1 2.5-0.9 5.3-1.1zm0-5.2q-2.9-0.1-5.6-1.2-0.9 2.6-0.9 5.3h6.5zm0-8.9c-2.3 1.8-4.1 4.1-5.2 6.7q2.5 1 5.2 1.1zm5.9 20.1q-2.3-0.8-4.8-0.9v6.8c2.1-1.6 3.7-3.6 4.8-5.9zm4.2 2.1q-1.5-1.1-3.1-1.7-1.5 3.2-4.2 5.6c2.8-0.5 5.3-1.9 7.3-3.9zm3.6-8.1h-5.2q-0.1 2.8-1.1 5.3 1.8 0.8 3.4 1.9c1.7-2.1 2.7-4.5 2.9-7.2zm-2.5-8.7q-1.6 1.3-3.5 2.1 0.8 2.7 0.9 5.5h5.1c0-2.8-0.9-5.4-2.5-7.6z"/>
					</g>
					<g id="&lt;Group&gt;">
						<path id="&lt;Compound Path&gt;" fill-rule="evenodd" class="s0" d="m443.7 50.6v-12.3c0-2.2 1.8-4 4-4h15.7c2.2 0 4 1.8 4 4v12.3c0 2.2-1.8 4-4 4h-4v2.1h3.6c0.3 0 0.5 0.2 0.5 0.5v2c0 0.3-0.2 0.5-0.5 0.5h-14.9c-0.3 0-0.6-0.2-0.6-0.5v-2c0-0.3 0.3-0.5 0.6-0.5h3.6v-2.1h-4c-2.2 0-4-1.8-4-4zm1.1 0c0 1.5 1.3 2.8 2.9 2.8h15.7c1.5 0 2.8-1.3 2.8-2.8v-12.3c0-1.6-1.3-2.8-2.8-2.8h-15.7c-1.6 0-2.9 1.2-2.9 2.8zm17.6 7.2h-13.7v0.9h13.7zm-4.2-1.2v-2.1h-5.4v2.1z"/>
						<path id="&lt;Compound Path&gt;" fill-rule="evenodd" class="s0" d="m447.4 44.9q0-0.3 0.1-0.4v-2.9c0-2.2 1.8-4 4-4h8c2.2 0 4 1.8 4 4v2.9c0.2 0.1 0.3 0.2 0.3 0.4 0 0.1-0.1 0.3-0.3 0.3v2.1c0 2.2-1.8 4-4 4h-8c-2.2 0-4-1.8-4-4v-2.1q-0.1-0.1-0.1-0.3zm1.3-3.3v2.8h3.9l2.4-4c0.1-0.2 0.3-0.2 0.5-0.2 0.1 0 0.3 0.1 0.3 0.3l1.5 5.3 1.4-4c0-0.2 0.2-0.3 0.4-0.3 0.2 0 0.4 0.1 0.4 0.3l0.8 2.6h2.1v-2.8c0-1.6-1.3-2.9-2.9-2.9h-8c-1.6 0-2.8 1.3-2.8 2.9zm13.7 5.7v-2h-2.5c-0.2 0-0.3-0.1-0.4-0.3l-0.5-1.6-1.3 4.1c-0.1 0.2-0.3 0.3-0.5 0.3-0.2 0-0.4-0.1-0.4-0.3l-1.6-5.7-1.9 3.3c-0.1 0.1-0.3 0.2-0.4 0.2h-4.2v2c0 1.6 1.2 2.9 2.8 2.9h8c1.6 0 2.9-1.3 2.9-2.9zm1.1-2.4c0-0.2-0.1-0.3-0.2-0.3h-3.2l-0.8-2.7q-0.1-0.2-0.2-0.2c-0.1 0-0.2 0.1-0.2 0.2l-1.6 4.7-1.7-6q0-0.2-0.2-0.2-0.1 0-0.2 0.1l-2.5 4.1h-4.9c-0.1 0-0.2 0.1-0.2 0.3 0 0.1 0.1 0.2 0.2 0.2h5.1q0.1 0 0.2-0.1l2.2-3.8 1.7 6.2q0.1 0.2 0.2 0.2v0.1-0.1q0.2 0 0.2-0.2l1.7-4.7 0.6 2.2q0.1 0.2 0.2 0.2h3.4c0.1 0 0.2-0.1 0.2-0.2z"/>
					</g>
					<g id="&lt;Group&gt;">
						<path id="&lt;Compound Path&gt;" fill-rule="evenodd" class="s0" d="m605.5 41.7c0-3.9 2.2-6.8 5.8-7.8 3.2-0.8 7.6 0.1 10.4 3.9 2.5-3.6 7-4.7 10.3-3.8 3.6 0.9 5.9 3.9 5.9 7.7 0 8.8-15.2 19.5-15.8 19.9q-0.2 0.2-0.4 0.2-0.2 0-0.4-0.2c-0.7-0.4-15.8-11.1-15.8-19.9zm1.3 0c0 7.3 12.5 16.8 14.9 18.6 2.3-1.8 14.8-11.3 14.8-18.6 0-3.3-1.8-5.6-4.8-6.4-3.2-0.8-7.4 0.3-9.4 4.1-0.2 0.2-0.4 0.3-0.6 0.3-0.3 0-0.5-0.1-0.6-0.3-1.8-3.2-4.8-4.4-7.5-4.4q-1.1 0-2 0.2c-3 0.8-4.8 3.2-4.8 6.5z"/>
						<path id="&lt;Compound Path&gt;" fill-rule="evenodd" class="s0" d="m619.9 50.6h-3v-3.6h3v-3.2h3.5v3.2h3v3.6h-3v3.1h-3.5zm0.9-0.9v3.1h1.7v-3.1h3v-1.8h-3v-3.1h-1.7v3.1h-3v1.8z"/>
					</g>
				</g>
				<g id="&lt;Group&gt;">
					<path id="&lt;Compound Path&gt;" fill-rule="evenodd" class="s0" d="m404.3 147.2c3.1 0.1 5.6 2.6 5.6 5.7v10.2c0 3.1-2.6 5.6-5.7 5.6h-3.3c-3.1 0-5.7-2.5-5.7-5.6v-10.2c0-3.1 2.6-5.7 5.7-5.7h0.8q0 0 0.1-0.1 0 0 0 0 0-0.2 0.1-0.4l0.1-0.1q0-0.1 0.1-0.3v-0.1q0.1-0.2 0.2-0.4l0.1-0.1q0.1-0.1 0.2-0.3 0-0.1 0-0.1 0.1-0.2 0.3-0.4v-0.1q0.2-0.2 0.3-0.4l0.1-0.1q0.1-0.2 0.3-0.4v-0.1q0.2-0.2 0.4-0.4l0.1-0.1q0.2-0.2 0.4-0.3v-0.1q0.2-0.2 0.5-0.4 0 0 0.1-0.1 0.2-0.2 0.4-0.3l0.1-0.1q0.3-0.2 0.6-0.3l0.1-0.1q0.2-0.2 0.5-0.3l0.1-0.1q0.4-0.1 0.7-0.3 0 0 0.1 0 0.3-0.1 0.6-0.2l0.2-0.1q0.4-0.2 0.8-0.2 0.1-0.1 0.3-0.1c0.6 0 1.1 0.5 1.1 1.2 0 0.5-0.3 0.9-0.7 1.1q-0.1 0-0.2 0 0 0 0 0c-0.7 0.2-3.8 1.2-5.5 4.6zm4.5 10.2h-12.4v5.7c0 2.5 2 4.5 4.5 4.5h3.3c2.5 0 4.6-2 4.6-4.5zm0.7-15.9q0 0 0.1 0 0 0 0 0 0-0.1 0-0.1-0.4 0.1-0.7 0.2l-0.2 0.1q-0.3 0.1-0.6 0.2h-0.1q-0.3 0.1-0.5 0.3l-0.2 0.1q-0.2 0.1-0.4 0.2l-0.1 0.1q-0.3 0.1-0.5 0.3l-0.1 0.1q-0.2 0.1-0.4 0.2-0.1 0.1-0.1 0.1-0.2 0.2-0.4 0.4h-0.1q-0.1 0.2-0.3 0.4l-0.1 0.1q-0.2 0.1-0.3 0.3v0.1q-0.2 0.1-0.3 0.3l-0.1 0.1q-0.1 0.2-0.2 0.4h-0.1q-0.1 0.2-0.2 0.4l-0.1 0.1q-0.1 0.1-0.1 0.3l-0.1 0.1q-0.1 0.2-0.2 0.4-0.1 0.2-0.1 0.3l-0.1 0.1q0 0.2-0.1 0.3 0 0 0 0 0 0 0 0-0.1 0.3-0.1 0.5c-0.1 0.2-0.3 0.4-0.6 0.4h-1.2c-2.5 0-4.5 2-4.5 4.5v3.4h12.4v-3.4c0-2.5-2.1-4.5-4.6-4.5h-0.7c-0.2 0-0.4-0.1-0.5-0.2-0.1-0.2-0.1-0.4-0.1-0.6 1.8-4.5 5.8-5.8 6.6-6z"/>
					<path id="&lt;Compound Path&gt;" fill-rule="evenodd" class="s0" d="m402.6 149.1c1 0 1.8 0.8 1.8 1.8v3.3c0 1-0.9 1.8-1.8 1.8-1 0-1.8-0.8-1.8-1.8v-3.3c0-1 0.8-1.8 1.8-1.8q0 0 0 0zm0 1.1q-0.1 0-0.1 0c-0.3 0-0.6 0.3-0.6 0.7v3.3c0 0.4 0.3 0.7 0.7 0.7 0.3 0 0.6-0.3 0.6-0.7v-3.3c0-0.4-0.3-0.7-0.6-0.7z"/>
				</g>
				<g id="&lt;Group&gt;">
					<path id="&lt;Compound Path&gt;" fill-rule="evenodd" class="s0" d="m562.7 153.2c0 0.5 0.3 0.9 0.7 1h3.9q0 0 0.1 0h1.7c0.5 0 1.1-0.1 2-0.1 2 0 3.4 0.8 4.5 1.6q0.4 0.3 0.8 0.6c1.2 0.8 2.2 1.6 3.7 1.6 0.2 0 0.4 0.1 0.6 0.3q0.1 0.2 0.1 0.5v4.7q0 0.1 0 0.2v0.3c0 0.4-0.3 0.7-0.7 0.7-0.5 0-1.4 0.2-2.4 0.5h-0.2q-0.1 0-0.1 0c-3.5 0.9-11.1 2.8-13.3 3.4q-0.4 0.1-0.6 0.1-0.5 0-1-0.2 0 0 0 0h-0.1q-0.1-0.1-0.2-0.1l-10.1-7.4q-0.3-0.1-0.5-0.4-0.1 0-0.1 0c-0.5-0.5-0.7-1.1-0.7-1.8 0-1.3 1-2.3 2.2-2.5 0.3 0 0.5 0 0.8 0q0.2 0.1 0.3 0.1 0.2 0.1 0.4 0.2 0.1 0 0.2 0.1 0 0 0.1 0l1.1 0.8 6.1 3.9q0.1 0.1 0.2 0.1c0.3-0.1 1.2-0.4 3.8-1.1h0.1q0.8-0.2 1.5-0.4l0.5-0.1c0.4-0.1 0.8-0.2 1-0.3 0.2-0.1 0.4-0.4 0.4-0.7 0-0.5-0.3-0.9-0.8-1h-3.8q-0.1 0-0.1 0h-1.7q-0.8 0.1-2.1 0.1c-2 0-3.4-0.8-4.5-1.6q-0.4-0.3-0.8-0.6c-1.2-0.8-2.2-1.6-3.6-1.6-0.3 0-0.5-0.1-0.6-0.3q-0.2-0.2-0.1-0.5v-4.7q-0.1-0.1 0-0.2v-0.3c0-0.4 0.3-0.7 0.7-0.7 0.5 0 1.3-0.2 2.4-0.5h0.2q0 0 0.1 0c2.2-0.6 6.7-1.7 13.2-3.4h0.1q0 0 0 0c0.5-0.1 1-0.1 1.5 0.1h0.1q0.1 0.1 0.2 0.1l10.1 7.4q0.3 0.1 0.6 0.4 0 0 0 0c0.5 0.5 0.8 1.1 0.8 1.8 0 1.3-1 2.3-2.3 2.5q-0.4 0-0.8 0-0.1-0.1-0.3-0.1-0.2-0.1-0.4-0.2-0.1 0-0.2-0.1 0 0 0 0l-1.1-0.8-6.1-3.9q-0.1-0.1-0.3-0.1-0.5 0.2-3.8 1.1h-0.1q-0.7 0.2-1.5 0.4c-0.6 0.2-1.2 0.3-1.4 0.4-0.3 0.1-0.4 0.4-0.4 0.7zm6.4 3.2c1.1 0.3 1.8 1.2 1.8 2.4 0 0.8-0.5 1.6-1.2 2.1q-0.1 0-0.2 0c-0.1 0-0.5 0.2-1.1 0.3l-0.4 0.1q-0.7 0.2-1.5 0.4h-0.1c-2.4 0.7-3.6 1-3.9 1.1q-0.1 0-0.2 0-0.4 0-0.8-0.1-0.1 0-0.2-0.1l-6.2-4q0 0 0 0l-1.1-0.8q0 0 0 0-0.1 0-0.1-0.1-0.1 0-0.2 0 0 0-0.1 0-0.2-0.1-0.3 0 0 0-0.1 0c-0.5 0-1 0.5-1 1q0 0.5 0.3 0.8 0.1 0 0.1 0 0.1 0.1 0.2 0.2 0.1 0 0.1 0l10.1 7.4c0.3 0 0.5 0.1 0.7 0h0.1c2.2-0.6 9.7-2.5 13.2-3.3l0.2-0.1q0 0 0.1 0 1.2-0.4 2-0.5v-0.4-3.5c-1.5-0.2-2.6-1-3.7-1.9q-0.4-0.2-0.8-0.5c-1-0.7-2.1-1.3-3.7-1.3-0.8 0-1.5 0-2 0q0 0 0 0 0 0 0 0.1 0 0.1 0 0.3 0 0.2 0 0.3 0 0.1 0 0.1 0 0 0 0zm-7.9-3.2c0-0.8 0.5-1.6 1.3-2.1q0 0 0.1 0c0.1-0.1 0.8-0.2 1.6-0.4q0.7-0.2 1.4-0.4h0.1c2.4-0.7 3.7-1 4-1.1q0 0 0.1 0 0.5 0 0.8 0.1 0.1 0 0.2 0.1l6.3 4q0 0 0 0l1.1 0.8q0 0 0 0 0 0 0.1 0.1 0.1 0 0.1 0 0.1 0 0.1 0 0.2 0.1 0.4 0 0 0 0 0c0.6 0 1-0.5 1-1q0-0.5-0.3-0.8 0 0 0 0-0.1-0.1-0.3-0.2 0 0-0.1 0l-0.4-0.3-9.6-7-0.1-0.1q-0.3-0.1-0.7 0c-6.5 1.7-11 2.8-13.3 3.3l-0.1 0.1q-0.1 0-0.1 0-1.3 0.4-2.1 0.5v0.4 3.5c1.6 0.2 2.7 1 3.8 1.9q0.3 0.2 0.7 0.5c1 0.7 2.1 1.3 3.7 1.3q1.3 0 2.1 0h4.2c0.2 0 0.4-0.2 0.4-0.4 0-0.2-0.2-0.4-0.4-0.4q0 0 0 0h-4q0 0-0.1 0c-1.1-0.2-2-1.2-2-2.4z"/>
				</g>
				<g id="&lt;Group&gt;">
					<path id="&lt;Compound Path&gt;" fill-rule="evenodd" class="s0" d="m503.5 163.5h-8.2q-0.2 0-0.4-0.1-0.1-0.2-0.1-0.4c0-4.4 2.5-6.6 2.7-6.7 0.1-0.2 0.4-0.2 0.6 0 2.8 2.3 5.8 0 5.9 0 0.2-0.2 0.5-0.2 0.6 0 0.7 0.6 1.2 1.4 1.6 2.2q0.2-0.1 0.5 0.1c2.8 2.2 5.7 0.1 5.8 0 0.2-0.2 0.4-0.2 0.5-0.1 0.8-1.4 1.6-2.2 1.7-2.2 0.1-0.2 0.4-0.2 0.6 0 2.8 2.3 5.8 0 5.9 0 0.2-0.2 0.4-0.2 0.6 0 2.6 2.4 2.5 6.5 2.5 6.7 0 0.3-0.2 0.5-0.5 0.5h-8.3c0.2 1 0.2 1.7 0.2 1.8 0 0.3-0.3 0.5-0.5 0.5h-11.4q-0.2 0-0.3-0.2-0.2-0.1-0.2-0.3 0.1-1 0.2-1.8zm10.3-4.2c0.8 1 1.3 2.1 1.5 3.2h8c-0.1-1.1-0.4-3.5-1.9-5.2-1 0.6-3.7 1.9-6.4 0.1-0.3 0.3-0.8 0.9-1.2 1.9zm-9.4 5.5h10.2c0-1.1-0.3-3.5-1.8-5.2-1 0.6-3.7 1.9-6.4 0-0.6 0.7-1.8 2.4-2 5.2zm-0.7-2.3c0.5-1.6 1.2-2.6 1.7-3.3-0.3-0.6-0.7-1.3-1.2-1.9-1 0.6-3.7 1.9-6.4 0.1-0.5 0.6-1.8 2.3-2 5.1z"/>
					<path id="&lt;Compound Path&gt;" fill-rule="evenodd" class="s0" d="m497.5 147.6c0.9-0.9 2.2-1.4 3.5-1.4 2.4 0 4.4 1.8 4.7 4.1q0.2-0.2 0.4-0.4c0.9-0.9 2.1-1.4 3.4-1.4 1.6 0 3 0.7 3.9 1.9 0.1-1.1 0.6-2 1.3-2.8 0.9-0.9 2.2-1.4 3.5-1.4 2.6 0 4.8 2.2 4.8 4.8 0 1.3-0.5 2.5-1.4 3.4-0.9 1-2.2 1.5-3.4 1.5-1.6 0-3-0.8-3.9-2-0.1 1.1-0.6 2.1-1.4 2.8-0.9 0.9-2.1 1.5-3.4 1.5-2.4 0-4.4-1.8-4.8-4.1q-0.1 0.2-0.3 0.3c-0.9 1-2.2 1.5-3.4 1.5-2.7 0-4.9-2.2-4.9-4.9 0-1.3 0.5-2.5 1.4-3.4zm16.8 3.4c0 2.1 1.7 3.8 3.9 3.8 1 0 1.9-0.4 2.6-1.1 0.8-0.7 1.2-1.7 1.2-2.7 0-2.1-1.7-3.8-3.8-3.8-1.1 0-2 0.4-2.7 1.1-0.8 0.8-1.2 1.7-1.2 2.7zm-8.6 2.3c0 2.1 1.7 3.8 3.8 3.8 1 0 2-0.4 2.7-1.1 0.7-0.7 1.1-1.7 1.1-2.7 0-2.1-1.7-3.8-3.8-3.8-1 0-2 0.4-2.7 1.1-0.7 0.7-1.1 1.7-1.1 2.7zm-7.4-5c-0.8 0.8-1.2 1.7-1.2 2.7 0 2.1 1.7 3.8 3.9 3.8 1 0 1.9-0.4 2.7-1.1 0.7-0.7 1.1-1.7 1.1-2.7 0-2.1-1.7-3.8-3.8-3.8-1.1 0-2 0.4-2.7 1.1z"/>
				</g>
				<g id="&lt;Group&gt;">
					<path id="&lt;Compound Path&gt;" fill-rule="evenodd" class="s0" d="m364.5 154.6c0 7.7-6 14-13.6 14.3h-1.4c-7.6-0.4-13.5-6.7-13.5-14.3 0-7.6 5.9-13.9 13.5-14.3q0 0 0 0h1.4c7.6 0.3 13.6 6.6 13.6 14.3zm-12-13c1.9 1.8 3.5 4 4.5 6.4q1.7-0.8 3.3-2c-2.1-2.3-4.8-3.9-7.8-4.4zm-1.7 7.7q2.7 0 5.2-0.9c-1.1-2.7-2.9-5-5.2-6.7zm0 5.1h6.4q-0.1-2.6-0.9-5.1-2.7 1-5.5 1.1zm0 5.1q2.7 0.1 5.3 0.9 0.9-2.4 1-4.9h-6.3zm-10.4-13.8q1.4 1.1 3.1 1.9c1-2.4 2.5-4.5 4.4-6.2-2.9 0.6-5.5 2.1-7.5 4.3zm-3.3 8.6h5q0-2.9 1-5.7-1.8-0.8-3.4-2.1c-1.7 2.3-2.6 5-2.6 7.8zm6.2 6.7q-1-2.7-1.2-5.6h-5c0.2 2.8 1.3 5.3 3 7.4q1.5-1.1 3.2-1.8zm4.6 6.4q-2.6-2.3-4.1-5.4-1.6 0.7-2.9 1.7c1.9 1.9 4.3 3.2 7 3.7zm1.8-6.8q-2.5 0.1-4.9 1c1.1 2.3 2.8 4.3 4.9 5.9zm0-5.2h-6.5q0.2 2.7 1.2 5.1 2.5-0.9 5.3-1zm0-5.2q-2.9-0.2-5.6-1.2-0.9 2.5-0.9 5.3h6.5zm0-8.9c-2.3 1.7-4.1 4-5.2 6.6q2.5 1 5.2 1.2zm5.9 20q-2.3-0.8-4.8-0.8v6.8c2.1-1.6 3.7-3.7 4.8-6zm4.2 2.1q-1.5-1-3.1-1.7-1.5 3.2-4.2 5.6c2.8-0.4 5.3-1.8 7.3-3.9zm3.6-8.1h-5.2q-0.1 2.8-1.1 5.4 1.8 0.7 3.4 1.9c1.7-2.1 2.7-4.6 2.9-7.3zm-2.5-8.7q-1.6 1.3-3.5 2.1 0.8 2.7 0.9 5.5h5.1c0-2.7-0.9-5.3-2.5-7.6z"/>
				</g>
				<g id="&lt;Group&gt;">
					<path id="&lt;Compound Path&gt;" fill-rule="evenodd" class="s0" d="m443.7 159.6v-12.2c0-2.2 1.8-4 4-4h15.7c2.2 0 4 1.8 4 4v12.2c0 2.2-1.8 4-4 4h-4v2.1h3.6c0.3 0 0.5 0.2 0.5 0.5v2c0 0.3-0.2 0.6-0.5 0.6h-14.9c-0.3 0-0.6-0.3-0.6-0.6v-2c0-0.3 0.3-0.5 0.6-0.5h3.6v-2.1h-4c-2.2 0-4-1.8-4-4zm1.1 0c0 1.6 1.3 2.9 2.9 2.9h15.7c1.5 0 2.8-1.3 2.8-2.9v-12.2c0-1.6-1.3-2.9-2.8-2.9h-15.7c-1.6 0-2.9 1.3-2.9 2.9zm17.6 7.2h-13.7v0.8h13.7zm-4.2-1.1v-2.1h-5.4v2.1z"/>
					<path id="&lt;Compound Path&gt;" fill-rule="evenodd" class="s0" d="m447.4 153.9q0-0.2 0.1-0.3v-3c0-2.2 1.8-4 4-4h8c2.2 0 4 1.8 4 4v2.9c0.2 0.1 0.3 0.2 0.3 0.4 0 0.2-0.1 0.3-0.3 0.4v2.1c0 2.2-1.8 3.9-4 3.9h-8c-2.2 0-4-1.7-4-3.9v-2.2q-0.1-0.1-0.1-0.3zm1.3-3.3v2.9h3.9l2.4-4.1c0.1-0.1 0.3-0.2 0.5-0.2 0.1 0 0.3 0.2 0.3 0.3l1.5 5.4 1.4-4.1c0-0.1 0.2-0.3 0.4-0.3 0.2 0 0.4 0.2 0.4 0.4l0.8 2.6h2.1v-2.9c0-1.6-1.3-2.9-2.9-2.9h-8c-1.6 0-2.8 1.3-2.8 2.9zm13.7 5.8v-2.1h-2.5c-0.2 0-0.3-0.1-0.4-0.3l-0.5-1.5-1.3 4c-0.1 0.2-0.3 0.3-0.5 0.3-0.2 0-0.4-0.1-0.4-0.3l-1.6-5.7-1.9 3.3c-0.1 0.2-0.3 0.2-0.4 0.2h-4.2v2.1c0 1.5 1.2 2.8 2.8 2.8h8c1.6 0 2.9-1.3 2.9-2.8zm1.1-2.5c0-0.1-0.1-0.2-0.2-0.2h-3.2l-0.8-2.8q-0.1-0.1-0.2-0.1c-0.1 0-0.2 0-0.2 0.1l-1.6 4.7-1.7-6q0-0.1-0.2-0.2-0.1 0-0.2 0.2l-2.5 4.1h-4.9c-0.1 0-0.2 0.1-0.2 0.2 0 0.1 0.1 0.2 0.2 0.2h5.1q0.1 0 0.2-0.1l2.2-3.8 1.7 6.3q0.1 0.1 0.2 0.1v0.1-0.1q0.2 0 0.2-0.1l1.7-4.8 0.6 2.3q0.1 0.1 0.2 0.1h3.4c0.1 0 0.2-0.1 0.2-0.2z"/>
				</g>
				<g id="&lt;Group&gt;">
					<path id="&lt;Compound Path&gt;" fill-rule="evenodd" class="s0" d="m605.5 150.7c0-3.8 2.2-6.8 5.8-7.7 3.2-0.9 7.6 0 10.4 3.8 2.5-3.6 7-4.6 10.3-3.8 3.6 0.9 5.9 3.9 5.9 7.7 0 8.8-15.2 19.5-15.8 20q-0.2 0.1-0.4 0.1-0.2 0-0.4-0.1c-0.7-0.5-15.8-11.2-15.8-20zm1.3 0c0 7.4 12.5 16.9 14.9 18.6 2.3-1.7 14.8-11.2 14.8-18.6 0-3.2-1.8-5.6-4.8-6.4-3.2-0.8-7.4 0.4-9.4 4.1-0.2 0.2-0.4 0.3-0.6 0.3-0.3 0-0.5-0.1-0.6-0.3-1.8-3.1-4.8-4.4-7.5-4.4q-1.1 0-2 0.3c-3 0.8-4.8 3.2-4.8 6.4z"/>
					<path id="&lt;Compound Path&gt;" fill-rule="evenodd" class="s0" d="m619.9 159.6h-3v-3.6h3v-3.1h3.5v3.1h3v3.6h-3v3.1h-3.5zm0.9-0.9v3.2h1.7v-3.2h3v-1.8h-3v-3.1h-1.7v3.1h-3v1.8z"/>
				</g>
				<g id="&lt;Group&gt;">
					<g id="&lt;Group&gt;">
						<path id="&lt;Compound Path&gt;" fill-rule="evenodd" class="s0" d="m68.3 191c0 7.7-6 14-13.7 14.3h-1.4c-7.5-0.4-13.5-6.7-13.5-14.3 0-7.6 6-13.9 13.5-14.3q0 0 0.1 0h1.3c7.7 0.4 13.7 6.6 13.7 14.3zm-12.1-13c2 1.8 3.5 4 4.5 6.4q1.8-0.8 3.3-1.9c-2-2.4-4.7-4-7.8-4.5zm-1.6 7.8q2.6-0.1 5.1-1c-1.1-2.6-2.8-4.9-5.1-6.7zm0 5.2h6.3q0-2.7-0.8-5.1-2.7 0.9-5.5 1zm0 5.1q2.7 0.1 5.2 0.9 0.9-2.3 1.1-4.9h-6.3zm-10.4-13.8q1.4 1.1 3 1.9c1-2.3 2.5-4.4 4.4-6.1-2.9 0.5-5.5 2-7.4 4.2zm-3.4 8.7h5q0.1-3 1-5.8-1.8-0.8-3.3-2.1c-1.7 2.3-2.6 5-2.7 7.9zm6.3 6.6q-1.1-2.7-1.2-5.5h-5c0.2 2.7 1.2 5.2 3 7.4q1.5-1.2 3.2-1.9zm4.5 6.4q-2.6-2.3-4.1-5.4-1.5 0.7-2.9 1.7c1.9 1.9 4.4 3.2 7 3.7zm1.9-6.8q-2.6 0.1-4.9 1c1.1 2.3 2.8 4.3 4.9 5.9zm0-5.2h-6.5q0.1 2.7 1.1 5.2 2.6-1 5.4-1.1zm0-5.2q-3-0.1-5.7-1.2-0.8 2.6-0.9 5.3h6.6zm0-8.9c-2.4 1.7-4.2 4-5.3 6.7q2.5 0.9 5.3 1.1zm5.9 20q-2.4-0.7-4.8-0.8v6.8c2-1.6 3.7-3.7 4.8-6zm4.2 2.1q-1.5-1-3.2-1.7-1.5 3.2-4.2 5.7c2.8-0.5 5.4-1.9 7.4-4zm3.5-8h-5.1q-0.2 2.7-1.2 5.3 1.9 0.7 3.5 1.9c1.6-2.1 2.6-4.6 2.8-7.2zm-2.4-8.8q-1.7 1.3-3.6 2.1 0.9 2.7 0.9 5.6l5.2-0.1c0-2.7-0.9-5.3-2.5-7.6z"/>
					</g>
					<g id="&lt;Group&gt;">
						<path id="&lt;Compound Path&gt;" fill-rule="evenodd" class="s0" d="m334 96.2c0-3.8 2.2-6.8 5.8-7.8 3.2-0.8 7.6 0.1 10.4 3.9 2.5-3.6 7-4.7 10.3-3.8 3.6 0.9 5.9 3.9 5.9 7.7 0 8.8-15.2 19.5-15.8 20q-0.2 0.1-0.4 0.1-0.2 0-0.4-0.1c-0.6-0.5-15.8-11.2-15.8-20zm1.3 0c0 7.4 12.5 16.8 14.9 18.6 2.4-1.8 14.8-11.2 14.8-18.6 0-3.2-1.8-5.6-4.8-6.4-3.1-0.8-7.4 0.3-9.4 4.1-0.1 0.2-0.4 0.3-0.6 0.3-0.3 0-0.5-0.1-0.6-0.3-1.8-3.2-4.8-4.4-7.5-4.4q-1 0-2 0.2c-3 0.8-4.8 3.3-4.8 6.5z"/>
						<path id="&lt;Compound Path&gt;" fill-rule="evenodd" class="s0" d="m348.4 105.1h-3v-3.6h3v-3.1h3.5v3.1h3v3.6h-3v3.1h-3.5zm0.9-0.9v3.1h1.7v-3.1h3v-1.8h-3v-3.1h-1.7v3.1h-3v1.8z"/>
					</g>
				</g>
				<g id="&lt;Group&gt;">
					<g id="&lt;Group&gt;">
						<path id="&lt;Compound Path&gt;" fill-rule="evenodd" class="s0" d="m450.8 92.2q-0.2-0.2-0.4-0.4-0.5-0.6-0.7-1.3-0.2-0.7-0.2-1.4c0-2.2 1.7-4 3.8-4 1.3 0 2.4 0.6 3.1 1.7 0.7-1.1 1.8-1.7 3-1.7 2.1 0 3.9 1.8 3.9 4q-0.1 0.8-0.3 1.4-0.3 0.9-0.9 1.5 0 0 0 0l-5.3 5.7q-0.2 0.1-0.4 0.1-0.3 0-0.4-0.1zm0.3-1.1q0.1 0.1 0.3 0.3l4.9 5.2 5.1-5.4q0.5-0.5 0.7-1.1 0.1-0.5 0.1-1c0-0.8-0.3-1.6-0.8-2.2-0.5-0.5-1.2-0.8-2-0.8-1.1 0-2.1 0.7-2.6 1.7-0.1 0.2-0.3 0.4-0.5 0.4-0.2 0-0.4-0.2-0.5-0.4-0.4-1-1.4-1.7-2.6-1.7-0.7 0-1.4 0.3-2 0.8-0.5 0.6-0.8 1.4-0.8 2.2q0 0.5 0.2 1 0.2 0.5 0.5 1z"/>
						<path id="&lt;Compound Path&gt;" fill-rule="evenodd" class="s0" d="m473.1 104v5.2q0 0.1 0 0.1v0.4c0 0.4-0.3 0.6-0.7 0.6-0.5 0-1.4 0.2-2.5 0.5l-0.2 0.1q0 0-0.1 0c-3.2 0.9-9.9 2.7-13.7 3.7q0 0-0.1 0-0.2 0.1-0.5 0.1-0.5 0-1-0.2h-0.1q-0.1-0.1-0.1-0.1l-10.5-8.1q-0.3-0.2-0.5-0.4-0.1-0.1-0.1-0.1c-0.4-0.5-0.7-1.1-0.7-1.8 0-1.3 1-2.4 2.2-2.6 0.3 0 0.5 0 0.8 0q0.2 0.1 0.3 0.1 0.2 0.1 0.4 0.2 0.1 0 0.2 0.1 0 0 0.1 0l1.1 0.9 6.3 4.4q0.1 0 0.3 0c0.3-0.1 1.2-0.4 4-1.1l0.1-0.1q0.8-0.2 1.5-0.4l1.5-0.4c0.3-0.3 0.5-0.6 0.5-1.1 0-0.5-0.4-1-0.9-1.1h-4c-0.9 0-1.7-0.9-1.7-1.9 0-1 0.8-1.8 1.7-1.8h4.4c0.5-0.1 1.2-0.1 2.1-0.1 2 0 3.5 0.9 4.6 1.7q0.4 0.3 0.8 0.7c1.2 0.9 2.3 1.8 3.8 1.8 0.2 0 0.4 0.1 0.5 0.2q0.2 0.2 0.2 0.5zm-1.3 5.1v-0.6-4c-1.6-0.2-2.8-1.2-4-2.1q-0.3-0.3-0.7-0.6c-1.1-0.7-2.2-1.4-3.9-1.4q-1.3 0-2.1 0h-4.4c-0.3 0-0.5 0.3-0.5 0.6 0 0.3 0.2 0.6 0.5 0.6h4.1q0.1 0 0.1 0c1.1 0.2 2 1.2 2 2.4 0 0.9-0.5 1.8-1.2 2.2q-0.1 0-0.2 0.1l-1.6 0.4q-0.7 0.2-1.5 0.4l-0.1 0.1q-3.6 1-4.1 1.1 0 0-0.1 0-0.4 0-0.8-0.1-0.1 0-0.2 0l-6.4-4.5q0 0 0 0l-1.2-0.9q0 0 0 0 0 0-0.1 0-0.1-0.1-0.1-0.1-0.1 0-0.2 0-0.1-0.1-0.3 0-0.1 0-0.1 0c-0.6 0-1.1 0.6-1.1 1.3 0 0.4 0.1 0.7 0.3 1q0.1 0 0.1 0 0.1 0.1 0.3 0.2 0 0 0 0.1l10.5 8q0.4 0.2 0.8 0.1c3.7-1 10.5-2.8 13.7-3.7l0.2-0.1q0 0 0.1 0 1.3-0.4 2.2-0.5 0 0 0 0z"/>
					</g>
					<g id="&lt;Group&gt;">
						<path id="&lt;Compound Path&gt;" fill-rule="evenodd" class="s0" d="m418.8 110.3l-9.9 6.4-2.4-3.7q-0.9-0.2-1.8-0.7-0.7 0.4-1.5 0.6l-2.3 3.8-10.1-6 2.1-3.5c-0.6-1.5-0.7-3.1-0.7-4.7q0.1-3.2 0.3-6.4c0-1.3 1-2.3 2.2-2.3q0.6 0 1.1 0.2c-0.3-1.3 0.3-2.1 2.2-2.9q0 0 0 0c-0.1-1.1 0.1-1.7 1.1-2.3 0.9-0.6 1.9-0.7 2.8 0.3 0 0.1 0.2 0.3 0.2 0.3 0.1-0.6 0.6-1 1-1.2q0.3-0.1 0.6-0.2 0.8-0.4 1.9 0c0.4 0.2 0.9 0.6 1 1.2 0 0 0.2-0.3 0.2-0.3 0.9-1.1 1.9-1 2.8-0.5 1 0.6 1.3 1.2 1.2 2.3q0 0 0 0c2.1 0.8 2.6 1.7 2.2 3.2q0.5-0.3 1.2-0.4c1.2 0 2.2 1 2.3 2.3q0.3 3.2 0.5 6.4c0.1 1.6 0.1 3.2-0.4 4.7zm-9.4 5.3l8.1-5.3-1.5-2.3-0.2-0.3-0.5-0.8q0.1-0.3 0.2-0.6 0.1-0.4 0.2-0.7 0.1-0.7 0.1-1.4c-0.1-2.8-0.3-5.5-0.5-8.2 0-0.8-0.5-1.2-1.1-1.2-0.6-0.1-1.1 0.4-1.2 1.2-0.1 1-0.1 2-0.2 3-0.1 0.4 0 0.9-0.6 1-0.3 0-0.7-0.4-0.8-0.7q-3.2-4.6-6.2-9.4c-0.3-0.4-0.6-0.8-1.3-0.7-0.6 0.1-1.1 0.8-0.9 1.4 0.1 0.3 0.3 0.5 0.4 0.8q1.8 2.7 3.6 5.5c0.3 0.3 0.5 0.7 0.1 1-0.5 0.4-0.8 0-1-0.4q-2.4-3.6-4.7-7.1-0.7-1.1-1.5-0.7c-0.8 0.4-0.9 1.1-0.4 1.8q2.3 3.6 4.6 7.1c0.2 0.3 0.3 0.6 0.2 1-0.1 0.3-0.4 0.3-0.6 0.2-0.4-0.1-0.5-0.3-0.7-0.6q-1.9-3-3.9-6c-0.5-0.8-1-0.9-1.6-0.6-0.6 0.3-0.8 0.9-0.3 1.7 1.1 1.7 2.2 3.5 3.3 5.2q0.4 0.6 0.8 1.2c0.2 0.3 0.9 1.2 0.4 1.6-0.6 0.4-1.2-0.7-1.4-1.1q-0.4-0.5-0.8-1.1-0.7-1.1-1.5-2.3c-0.2-0.3-0.4-0.7-0.8-0.8-0.3-0.2-0.8-0.2-1-0.1-0.3 0.2-0.5 0.5-0.6 0.8 0 0.5 0.3 0.9 0.5 1.2q1.6 2.5 3.2 5c1.1 1.6 2.1 3.2 3.2 4.8 0.7 1.1 1.7 2.1 2.9 2.6q0.4 0.2 0.8 0.4 0.3 0.1 0.7 0.1l0.7 1.1 0.2 0.2zm1.9-18.6q0.1 0.2 0.3 0.5 0 0 0 0 0.1-0.5 0.1-0.9-0.3 0.2-0.4 0.4zm-4.3-6.4q0.7 1.1 1.4 2.1 0.5-0.7 0.9-1.5c0.5-0.8 0.3-1.5-0.5-1.8q-0.8-0.3-1.5 0.7-0.1 0.3-0.3 0.5zm-3.5 20.9q-0.5-0.3-1-0.8-0.7-0.8-1.3-1.7-3.1-4.7-6.1-9.4c-0.7-1.1-0.6-2.5 0.3-3.4 0.1-0.2 0.3-0.4 0.4-0.4-0.2-0.5-0.6-0.8-1.1-0.8-0.6 0.1-1.1 0.5-1.1 1.3-0.1 2.7-0.1 5.5-0.1 8.2q0 0.7 0.2 1.4 0 0.3 0.1 0.7 0.1 0.3 0.3 0.6l-0.5 0.8-0.2 0.3-1.4 2.4 8.3 5 1.5-2.5 0.2-0.3 0.6-1.1q0.4-0.1 0.8-0.2 0 0 0.1-0.1zm5.7-17.7q0.6 1.1 1.3 2.1 0.6-1 1.2-2c0.4-0.9 0.3-1.4-0.4-1.7-0.6-0.3-1.1-0.1-1.6 0.7q-0.3 0.5-0.5 0.9z"/>
						<path id="&lt;Compound Path&gt;" fill-rule="evenodd" class="s0" d="m412.6 103.3q0 0.5-0.1 1-0.2 0.5-0.6 1l-4 4.2-3.9-4.1q-0.1-0.1-0.3-0.3-0.2-0.3-0.4-0.7 0-0.1 0-0.1l0.4-0.2-0.4 0.2 0.4-0.2-0.4 0.2q0 0 0-0.1-0.2-0.4-0.2-0.9 0-0.4 0.2-0.9c0.3-1.1 1.3-1.8 2.4-1.8 0.9 0 1.7 0.5 2.2 1.3 0.5-0.8 1.3-1.3 2.2-1.3 1.4 0 2.5 1.2 2.5 2.7zm-0.8 0c0-1-0.8-1.8-1.7-1.8-0.7 0-1.3 0.4-1.6 1.1-0.1 0.2-0.3 0.4-0.6 0.4-0.3 0-0.5-0.2-0.7-0.4-0.2-0.7-0.8-1.1-1.5-1.1-0.7 0-1.3 0.5-1.6 1.2q-0.1 0.3-0.1 0.6 0 0.4 0.1 0.6 0 0.1 0 0.2 0.2 0.2 0.3 0.5 0.1 0.1 0.2 0.2l3.3 3.4 3.3-3.5q0.3-0.3 0.5-0.7 0.1-0.3 0.1-0.7z"/>
					</g>
					<g id="&lt;Group&gt;">
						<path id="&lt;Compound Path&gt;" fill-rule="evenodd" class="s0" d="m521.2 100.8c0 6.8-11.6 14.9-12.1 15.3q-0.1 0.1-0.3 0.1-0.2 0-0.4-0.1c-0.5-0.4-12-8.5-12-15.3 0-2.9 1.7-5.2 4.4-6 2.5-0.6 5.9 0 8 2.9 1.9-2.7 5.3-3.5 7.8-2.8 2.8 0.7 4.6 3 4.6 5.9zm-1.3 0c0-2.4-1.3-4.1-3.6-4.7-2.3-0.6-5.4 0.2-7 3-0.1 0.2-0.3 0.3-0.5 0.3-0.2 0-0.5-0.1-0.6-0.3-1.3-2.3-3.6-3.3-5.5-3.3q-0.8 0-1.5 0.2c-2.3 0.6-3.6 2.4-3.6 4.8 0 2.5 2 5.7 5.7 9.4 2.3 2.2 4.6 4 5.5 4.6 0.8-0.6 3.2-2.4 5.4-4.6 3.8-3.7 5.7-6.9 5.7-9.4z"/>
						<path id="&lt;Compound Path&gt;" fill-rule="evenodd" class="s0" d="m517.3 86.1c6.3 0 11.4 5.1 11.4 11.4 0 0.6-0.5 1.1-1 1.1-0.6 0-1.1-0.5-1.1-1.1 0-5.1-4.2-9.3-9.3-9.3-0.6 0-1-0.5-1-1 0-0.6 0.4-1.1 1-1.1zm0 0.6c-0.2 0-0.5 0.2-0.5 0.5 0 0.2 0.3 0.4 0.5 0.4 5.5 0 9.9 4.5 9.9 9.9 0 0.3 0.2 0.5 0.5 0.5 0.2 0 0.4-0.2 0.4-0.5 0-6-4.8-10.8-10.8-10.8z"/>
						<path id="&lt;Compound Path&gt;" fill-rule="evenodd" class="s0" d="m517.2 91.9c-0.6 0-1.1-0.5-1.1-1.1 0-0.5 0.5-1 1.1-1 4.3 0 7.8 3.5 7.8 7.8 0 0.6-0.5 1.1-1 1.1-0.6 0-1.1-0.5-1.1-1.1 0-3.1-2.5-5.7-5.7-5.7zm0-0.6c3.5 0 6.3 2.8 6.3 6.3 0 0.3 0.2 0.5 0.5 0.5 0.2 0 0.4-0.2 0.4-0.5 0-4-3.2-7.2-7.2-7.2-0.3 0-0.5 0.2-0.5 0.4 0 0.3 0.2 0.5 0.5 0.5z"/>
					</g>
					<g id="&lt;Group&gt;">
						<path id="&lt;Compound Path&gt;" fill-rule="evenodd" class="s0" d="m551.2 98.1c0-3.3 1.9-5.9 5-6.7 2.7-0.7 6.6 0 8.9 3.3 2.2-3.1 6.1-4 9-3.2 3.1 0.8 5 3.3 5 6.6 0 7.6-13.1 16.9-13.6 17.2q-0.2 0.1-0.4 0.1-0.1 0-0.3-0.1c-0.5-0.3-13.6-9.6-13.6-17.2zm1.1 0c0 6.4 10.8 14.5 12.8 16 2.1-1.5 12.9-9.6 12.9-16 0-2.8-1.6-4.8-4.2-5.5-2.7-0.7-6.4 0.3-8.1 3.5-0.1 0.2-0.3 0.3-0.5 0.3-0.3 0-0.5-0.1-0.6-0.3-1.5-2.7-4.1-3.8-6.4-3.8q-0.9 0-1.7 0.2c-2.6 0.7-4.2 2.8-4.2 5.6z"/>
						<path id="&lt;Compound Path&gt;" fill-rule="evenodd" class="s0" d="m563.6 105.8h-2.6v-3.1h2.6v-2.7h3.1v2.7h2.5v3.1h-2.5v2.7h-3.1zm0.8-0.8v2.7h1.5v-2.7h2.6v-1.6h-2.6v-2.7h-1.5v2.7h-2.6v1.6z"/>
					</g>
					<g id="&lt;Group&gt;">
						<path id="&lt;Compound Path&gt;" fill-rule="evenodd" class="s0" d="m675.8 93.4c3.1 0 5.6 2.5 5.6 5.6v10.2c0 3.1-2.6 5.7-5.7 5.7h-3.3c-3.1 0-5.7-2.6-5.7-5.7v-10.2c0-3.1 2.6-5.6 5.7-5.6h0.8q0-0.1 0-0.1 0.1-0.1 0.1-0.1 0-0.1 0.1-0.3v-0.1q0.1-0.2 0.2-0.4 0.1-0.2 0.2-0.4l0.1-0.2q0.1-0.1 0.2-0.3 0 0 0-0.1 0.1-0.2 0.3-0.4v-0.1q0.1-0.2 0.3-0.3l0.1-0.2q0.1-0.2 0.3-0.4 0.2-0.2 0.4-0.4l0.1-0.1q0.2-0.2 0.4-0.4 0.2-0.3 0.5-0.4 0-0.1 0.1-0.2 0.2-0.1 0.4-0.3h0.1q0.3-0.2 0.6-0.4l0.1-0.1q0.2-0.1 0.5-0.3h0.1q0.4-0.2 0.7-0.3 0 0 0.1-0.1 0.3-0.1 0.6-0.2l0.2-0.1q0.4-0.1 0.8-0.2 0.1 0 0.2 0c0.7 0 1.2 0.5 1.2 1.1 0 0.5-0.3 0.9-0.7 1.1q-0.1 0.1-0.2 0.1 0 0 0 0c-0.7 0.2-3.8 1.1-5.5 4.6zm4.4 10.1h-12.4v5.7c0 2.5 2.1 4.5 4.6 4.5h3.3c2.5 0 4.5-2 4.5-4.5zm0.8-15.8q0-0.1 0.1-0.1 0 0 0 0 0-0.1-0.1-0.1-0.3 0.1-0.6 0.2l-0.2 0.1q-0.3 0.1-0.6 0.2l-0.1 0.1q-0.3 0.1-0.6 0.2l-0.1 0.1q-0.2 0.1-0.4 0.2l-0.2 0.1q-0.2 0.2-0.4 0.3l-0.1 0.1q-0.2 0.1-0.4 0.3-0.1 0-0.1 0.1-0.2 0.2-0.4 0.3l-0.1 0.1q-0.2 0.1-0.3 0.3l-0.1 0.1q-0.2 0.2-0.3 0.3l-0.1 0.1q-0.1 0.2-0.2 0.4l-0.1 0.1q-0.1 0.1-0.2 0.3l-0.1 0.1q-0.1 0.2-0.2 0.3l-0.1 0.1q-0.1 0.2-0.1 0.3l-0.1 0.1q-0.1 0.2-0.2 0.4v0.1q-0.1 0.1-0.1 0.2l-0.1 0.2q0 0.1-0.1 0.3 0 0 0 0 0 0 0 0-0.1 0.2-0.1 0.4c-0.1 0.3-0.3 0.4-0.6 0.4h-1.2c-2.5 0-4.6 2.1-4.6 4.6v3.4h12.4v-3.4c0-2.5-2-4.6-4.5-4.6h-0.7c-0.2 0-0.4 0-0.5-0.2-0.1-0.2-0.1-0.3-0.1-0.5 1.8-4.6 5.8-5.8 6.6-6z"/>
						<path id="&lt;Compound Path&gt;" fill-rule="evenodd" class="s0" d="m674.1 95.2c1 0 1.7 0.8 1.7 1.8v3.3c0 1-0.8 1.8-1.8 1.8-0.9 0-1.8-0.8-1.8-1.8v-3.3c0-1 0.9-1.8 1.8-1.8q0.1 0 0.1 0zm-0.1 1.1q0 0 0 0c-0.3 0-0.6 0.3-0.6 0.7v3.3c0 0.4 0.3 0.7 0.6 0.7 0.4 0 0.7-0.3 0.7-0.7v-3.3c0-0.4-0.3-0.7-0.7-0.7z"/>
					</g>
					<g id="&lt;Group&gt;">
						<path id="&lt;Compound Path&gt;" fill-rule="evenodd" class="s0" d="m834.2 99.4c0 0.4 0.3 0.8 0.7 0.9h3.9q0 0 0 0h1.7c0.6 0 1.2 0 2.1 0 2 0 3.4 0.8 4.5 1.5q0.4 0.3 0.8 0.6c1.2 0.9 2.2 1.6 3.7 1.6 0.2 0 0.4 0.1 0.6 0.3q0.1 0.3 0.1 0.6v4.7q0 0 0 0.1v0.4c0 0.3-0.3 0.7-0.7 0.7-0.5 0-1.4 0.1-2.4 0.4l-0.2 0.1q-0.1 0-0.1 0c-3.5 0.8-11.1 2.8-13.3 3.3l-0.1 0.1q-0.3 0-0.6 0-0.4 0-0.9-0.2 0 0 0 0h-0.1q-0.1 0-0.2-0.1l-10.1-7.3q-0.3-0.2-0.6-0.4 0-0.1 0-0.1c-0.5-0.4-0.7-1.1-0.7-1.7 0-1.3 0.9-2.4 2.2-2.5 0.3-0.1 0.5-0.1 0.8 0q0.2 0 0.3 0 0.2 0.1 0.4 0.2 0.1 0 0.2 0.1 0 0 0.1 0l1.1 0.8 6.1 4q0.1 0 0.2 0c0.3-0.1 1.2-0.3 3.8-1h0.1q0.8-0.3 1.5-0.4l0.4-0.2c0.5-0.1 0.9-0.2 1-0.2 0.3-0.2 0.5-0.5 0.5-0.8 0-0.5-0.3-0.8-0.8-0.9h-3.9q0 0 0 0h-1.7q-0.8 0-2.1 0c-2 0-3.4-0.8-4.5-1.6q-0.4-0.3-0.8-0.5c-1.2-0.9-2.2-1.7-3.6-1.7-0.3 0-0.5-0.1-0.6-0.3q-0.2-0.2-0.2-0.5v-4.7q0-0.1 0-0.1v-0.4c0-0.4 0.4-0.7 0.8-0.7 0.4 0 1.3-0.1 2.4-0.4l0.2-0.1q0 0 0 0c2.3-0.6 6.8-1.7 13.3-3.4h0.1q0 0 0 0c0.5-0.1 1-0.1 1.5 0.1l0.1 0.1q0.1 0 0.2 0.1l10.1 7.3q0.3 0.2 0.6 0.4 0 0 0 0c0.5 0.5 0.7 1.1 0.7 1.8 0 1.3-0.9 2.4-2.2 2.5q-0.4 0.1-0.8 0-0.2 0-0.3-0.1-0.2 0-0.4-0.1-0.1-0.1-0.2-0.1 0 0 0-0.1l-1.2-0.8-6-3.9q-0.1 0-0.3 0-0.5 0.1-3.8 1h-0.1q-0.8 0.2-1.5 0.4c-0.7 0.2-1.2 0.3-1.4 0.4-0.3 0.2-0.4 0.5-0.4 0.8zm6.4 3.2c1 0.2 1.8 1.2 1.8 2.3 0 0.9-0.5 1.7-1.2 2.1q-0.1 0-0.2 0.1c-0.1 0-0.5 0.1-1.1 0.2l-0.4 0.2q-0.7 0.1-1.5 0.3l-0.1 0.1c-2.4 0.6-3.7 0.9-3.9 1q-0.1 0-0.2 0-0.4 0.1-0.8 0-0.1-0.1-0.2-0.1l-6.2-4.1q0 0 0 0l-1.1-0.8q0 0-0.1 0 0 0 0 0-0.1-0.1-0.2-0.1 0 0-0.1 0-0.2 0-0.3 0-0.1 0-0.1 0c-0.6 0.1-1 0.5-1 1.1q0 0.4 0.3 0.7 0 0 0.1 0 0.1 0.1 0.2 0.2 0.1 0 0.1 0.1l10.1 7.3c0.3 0.1 0.5 0.1 0.7 0 2.3-0.5 9.8-2.5 13.3-3.3l0.2-0.1q0 0 0.1 0 1.2-0.3 2-0.4v-0.4-3.6c-1.5-0.2-2.6-1-3.7-1.8q-0.4-0.3-0.8-0.6c-1-0.6-2.1-1.3-3.7-1.3-0.9 0-1.5 0-2 0q0 0.1 0 0.1 0 0 0 0 0 0.2 0 0.3 0 0.2 0 0.4 0 0 0 0 0 0 0 0.1zm-7.9-3.2c0-0.9 0.5-1.7 1.3-2.1q0-0.1 0.1-0.1c0.1 0 0.7-0.2 1.5-0.4q0.8-0.2 1.5-0.4h0.1c2.4-0.6 3.7-1 4-1q0-0.1 0.1-0.1 0.5 0 0.8 0.1 0.1 0 0.2 0.1l6.2 4q0.1 0 0.1 0l1.1 0.8q0 0 0 0 0 0.1 0.1 0.1 0.1 0 0.1 0.1 0.1 0 0.1 0 0.2 0 0.3 0 0.1 0 0.1 0c0.6-0.1 1-0.5 1-1.1q0-0.4-0.3-0.7 0 0 0-0.1-0.1-0.1-0.3-0.1 0-0.1-0.1-0.1l-0.4-0.3-9.7-7q-0.3-0.1-0.7-0.1c-6.5 1.7-11 2.8-13.3 3.4l-0.2 0.1q0 0 0 0-1.3 0.3-2.1 0.4v0.4 3.5c1.5 0.2 2.7 1.1 3.8 1.9q0.3 0.3 0.7 0.5c1 0.7 2.1 1.3 3.7 1.3q1.2 0 2.1 0h4.2c0.2 0 0.4-0.2 0.4-0.4 0-0.2-0.2-0.3-0.4-0.4q0 0-0.1 0h-3.9q0 0-0.1 0c-1.1-0.2-2-1.1-2-2.3z"/>
					</g>
					<g id="&lt;Group&gt;">
						<path id="&lt;Compound Path&gt;" fill-rule="evenodd" class="s0" d="m775 109.6h-8.2q-0.2 0-0.4-0.1-0.1-0.2-0.1-0.4c0-4.4 2.5-6.6 2.6-6.7 0.2-0.1 0.5-0.1 0.7 0 2.8 2.3 5.8 0 5.9 0 0.2-0.1 0.4-0.1 0.6 0 0.7 0.7 1.2 1.4 1.6 2.2q0.2-0.1 0.5 0.1c2.8 2.3 5.7 0.1 5.8 0 0.2-0.1 0.4-0.1 0.5-0.1 0.8-1.4 1.6-2.1 1.6-2.2 0.2-0.1 0.5-0.1 0.7 0 2.8 2.3 5.8 0 5.9 0 0.2-0.1 0.4-0.1 0.6 0 2.6 2.4 2.5 6.6 2.5 6.7 0 0.3-0.2 0.5-0.5 0.5h-8.3c0.2 1 0.2 1.8 0.2 1.8 0 0.3-0.3 0.5-0.5 0.5h-11.4q-0.2 0-0.3-0.1-0.2-0.2-0.2-0.4 0-0.9 0.2-1.8zm10.3-4.2c0.8 1 1.3 2.2 1.5 3.2h8c-0.1-1-0.4-3.5-1.9-5.1-1 0.6-3.7 1.9-6.4 0-0.3 0.3-0.8 1-1.2 1.9zm-9.4 5.5h10.2c0-1-0.3-3.5-1.8-5.1-1 0.5-3.7 1.8-6.4 0-0.6 0.6-1.9 2.4-2 5.1zm-0.7-2.3c0.5-1.5 1.2-2.6 1.7-3.2-0.3-0.7-0.7-1.4-1.2-1.9-1 0.6-3.7 1.9-6.4 0-0.5 0.6-1.8 2.4-2 5.1z"/>
						<path id="&lt;Compound Path&gt;" fill-rule="evenodd" class="s0" d="m769 93.7c0.9-0.9 2.2-1.4 3.4-1.4 2.5 0 4.5 1.8 4.8 4.1q0.2-0.2 0.4-0.4c0.9-0.9 2.1-1.4 3.4-1.4 1.6 0 3 0.8 3.8 1.9 0.2-1 0.7-2 1.4-2.8 0.9-0.9 2.1-1.4 3.4-1.4 2.7 0 4.9 2.2 4.9 4.9 0 1.3-0.5 2.5-1.4 3.4-1 0.9-2.2 1.4-3.5 1.4-1.5 0-2.9-0.7-3.8-1.9-0.1 1-0.6 2-1.4 2.8-0.9 0.9-2.1 1.4-3.4 1.4-2.4 0-4.4-1.8-4.8-4.1q-0.1 0.2-0.3 0.4c-1 0.9-2.2 1.4-3.5 1.4-2.6 0-4.8-2.2-4.8-4.8 0-1.3 0.5-2.5 1.4-3.5zm16.8 3.5c0 2.1 1.7 3.8 3.8 3.8 1.1 0 2-0.4 2.7-1.1 0.8-0.8 1.2-1.7 1.2-2.7 0-2.1-1.8-3.8-3.9-3.8-1 0-1.9 0.3-2.7 1.1-0.7 0.7-1.1 1.7-1.1 2.7zm-8.6 2.3c0 2.1 1.7 3.8 3.8 3.8 1 0 2-0.4 2.7-1.2 0.7-0.7 1.1-1.6 1.1-2.6 0-2.2-1.7-3.9-3.8-3.9-1 0-2 0.4-2.7 1.2-0.7 0.7-1.1 1.6-1.1 2.7zm-7.5-5c-0.7 0.7-1.1 1.7-1.1 2.7 0 2.1 1.7 3.8 3.8 3.8 1.1 0 2-0.4 2.7-1.1 0.8-0.8 1.2-1.7 1.2-2.7 0-2.1-1.8-3.8-3.9-3.8-1 0-1.9 0.3-2.7 1.1z"/>
					</g>
					<g id="&lt;Group&gt;">
						<path id="&lt;Compound Path&gt;" fill-rule="evenodd" class="s0" d="m636 100.7c0 7.7-6 14-13.7 14.3h-1.3c-7.6-0.4-13.5-6.6-13.5-14.3 0-7.6 5.9-13.8 13.5-14.2q0 0 0 0h1.3c7.7 0.3 13.7 6.5 13.7 14.2zm-12-13c1.9 1.8 3.5 4 4.5 6.4q1.7-0.8 3.3-1.9c-2.1-2.4-4.8-3.9-7.8-4.5zm-1.7 7.8q2.6-0.1 5.1-1c-1-2.6-2.8-4.9-5.1-6.7zm0 5.2h6.3q0-2.6-0.8-5.1-2.7 0.9-5.5 1zm0 5.2q2.7 0 5.2 0.9 1-2.4 1.1-5h-6.3zm-10.4-13.8q1.4 1.1 3.1 1.9c0.9-2.3 2.4-4.4 4.3-6.1-2.8 0.5-5.4 2-7.4 4.2zm-3.3 8.7h5q0-3 1-5.8-1.8-0.8-3.4-2c-1.7 2.2-2.6 4.9-2.6 7.8zm6.2 6.6q-1-2.6-1.2-5.5h-5c0.2 2.7 1.3 5.3 3 7.4q1.5-1.1 3.2-1.9zm4.5 6.4q-2.5-2.3-4-5.4-1.6 0.7-2.9 1.7c1.9 1.9 4.3 3.2 6.9 3.7zm1.9-6.8q-2.5 0.1-4.9 1c1.1 2.3 2.8 4.3 4.9 5.9zm0-5.1h-6.5q0.2 2.6 1.2 5.1 2.5-1 5.3-1.1zm0-5.2q-2.9-0.1-5.6-1.2-0.9 2.6-0.9 5.3h6.5zm0-8.9c-2.3 1.8-4.1 4.1-5.2 6.7q2.5 1 5.2 1.1zm5.9 20q-2.3-0.7-4.8-0.8v6.8c2.1-1.6 3.7-3.6 4.8-6zm4.2 2.1q-1.5-1-3.1-1.7-1.5 3.3-4.2 5.7c2.7-0.5 5.3-1.9 7.3-4zm3.6-8h-5.2q-0.1 2.8-1.1 5.3 1.8 0.8 3.4 1.9c1.7-2.1 2.7-4.6 2.9-7.2zm-2.5-8.7q-1.6 1.2-3.6 2.1 0.9 2.6 1 5.5h5.1c0-2.8-0.9-5.4-2.5-7.6z"/>
					</g>
					<g id="&lt;Group&gt;">
						<path id="&lt;Compound Path&gt;" fill-rule="evenodd" class="s0" d="m715.2 105.7v-12.2c0-2.2 1.8-4 4-4h15.7c2.2 0 3.9 1.8 3.9 4v12.2c0 2.2-1.7 4-3.9 4h-4.1v2.1h3.7c0.3 0 0.5 0.3 0.5 0.6v2c0 0.3-0.2 0.5-0.5 0.5h-14.9c-0.3 0-0.6-0.2-0.6-0.5v-2c0-0.3 0.3-0.6 0.6-0.6h3.6v-2.1h-4c-2.2 0-4-1.8-4-4zm1.1 0c0 1.6 1.3 2.9 2.9 2.9h15.7c1.5 0 2.8-1.3 2.8-2.9v-12.2c0-1.6-1.3-2.9-2.8-2.9h-15.7c-1.6 0-2.9 1.3-2.9 2.9zm17.6 7.2h-13.8v0.8h13.8zm-4.2-1.1v-2.1h-5.4v2.1z"/>
						<path id="&lt;Compound Path&gt;" fill-rule="evenodd" class="s0" d="m718.9 100q0-0.2 0.1-0.3v-3c0-2.2 1.8-3.9 4-3.9h8c2.2 0 4 1.7 4 3.9v3c0.2 0 0.2 0.2 0.2 0.3 0 0.2 0 0.3-0.2 0.4v2.1c0 2.2-1.8 4-4 4h-8c-2.2 0-4-1.8-4-4v-2.1q-0.1-0.1-0.1-0.4zm1.2-3.3v2.9h4l2.4-4c0.1-0.2 0.3-0.3 0.5-0.2 0.1 0 0.3 0.1 0.3 0.3l1.5 5.3 1.3-4c0.1-0.2 0.3-0.3 0.5-0.3 0.2 0 0.3 0.1 0.4 0.3l0.8 2.6h2.1v-2.9c0-1.5-1.3-2.8-2.9-2.8h-8c-1.6 0-2.9 1.3-2.9 2.8zm13.8 5.8v-2h-2.5c-0.2 0-0.3-0.1-0.4-0.3l-0.5-1.6-1.4 4.1c0 0.2-0.2 0.3-0.4 0.3-0.2 0-0.4-0.2-0.4-0.3l-1.6-5.8-2 3.4c0 0.1-0.2 0.2-0.3 0.2h-4.3v2c0 1.6 1.3 2.9 2.9 2.9h8c1.6 0 2.9-1.3 2.9-2.9zm1.1-2.5c0-0.1-0.1-0.2-0.2-0.2h-3.2l-0.8-2.7q-0.1-0.2-0.2-0.2c-0.1 0-0.2 0.1-0.2 0.2l-1.7 4.7-1.6-6.1q0-0.1-0.2-0.1-0.1 0-0.2 0.1l-2.5 4.1h-4.9c-0.1 0-0.2 0.1-0.2 0.2 0 0.2 0.1 0.3 0.2 0.3h5.1q0.1 0 0.1-0.1l2.3-3.8 1.7 6.2q0 0.1 0.2 0.2v0.1-0.1q0.2 0 0.2-0.2l1.7-4.7 0.6 2.2q0.1 0.2 0.2 0.2h3.4c0.1 0 0.2-0.1 0.2-0.3z"/>
					</g>
					<g id="&lt;Group&gt;">
						<path id="&lt;Compound Path&gt;" fill-rule="evenodd" class="s0" d="m877 96.8c0-3.8 2.2-6.7 5.7-7.7 3.2-0.9 7.7 0 10.5 3.8 2.5-3.5 6.9-4.6 10.3-3.7 3.6 0.9 5.8 3.8 5.8 7.6 0 8.9-15.1 19.6-15.8 20q-0.1 0.1-0.3 0.1-0.2 0-0.4-0.1c-0.7-0.4-15.8-11.1-15.8-20zm1.3 0c0 7.4 12.5 16.9 14.9 18.6 2.3-1.7 14.8-11.2 14.8-18.6 0-3.2-1.8-5.6-4.9-6.3-3.1-0.8-7.3 0.3-9.4 4-0.1 0.2-0.3 0.4-0.5 0.4-0.3 0-0.5-0.2-0.6-0.4-1.8-3.1-4.8-4.3-7.5-4.3q-1.1 0-2 0.2c-3 0.8-4.8 3.2-4.8 6.4z"/>
						<path id="&lt;Compound Path&gt;" fill-rule="evenodd" class="s0" d="m891.4 105.7h-3v-3.6h3v-3.1h3.5v3.1h3v3.6h-3v3.2h-3.5zm0.9-0.9v3.1h1.7v-3.1h3v-1.8h-3v-3.2h-1.7v3.2h-3v1.8z"/>
					</g>
				</g>
			</g>
		</g>
		<g id="&lt;Group&gt;">
			<g id="&lt;Group&gt;">
				<path id="&lt;Compound Path&gt;" fill-rule="evenodd" class="s0" d="m75.3 3.7c8.3 0 15.5 2.9 21.5 8.7 5.8 6 8.8 13.2 8.8 21.5v96.2c0 8.2-3 15.5-8.8 21.4-6 5.8-13.2 8.8-21.5 8.8h-29.2c-8.2 0-15.5-3-21.2-8.8-5.8-5.9-8.8-13.2-8.8-21.4v-96.2c0-8.3 3-15.5 8.8-21.5 5.7-5.8 13-8.7 21.2-8.7zm-29.2 8.4c-5.9 0-11.1 2.1-15.3 6.3-4.4 4.2-6.5 9.3-6.5 15.5v96.2c0 6.1 2.1 11.2 6.5 15.5 4.2 4.2 9.4 6.3 15.3 6.3h29.2c6 0 11.1-2.1 15.5-6.3 4.2-4.3 6.3-9.4 6.3-15.5v-96.2c0-6.2-2.1-11.3-6.3-15.5-4.4-4.2-9.5-6.3-15.5-6.3zm27.5 19.2h-25.5c-1.6 0-2.3-0.7-2.3-2.3v-3.7c0-1.6 0.7-2.5 2.3-2.5h25.5c1.6 0 2.3 0.9 2.3 2.5v3.7c0 1.6-0.7 2.3-2.3 2.3zm-12.9 95.4c4.9 0 8.8 3.9 8.8 8.7 0 4.9-3.9 8.8-8.8 8.8-4.7 0-8.6-3.9-8.6-8.8 0-4.8 3.9-8.7 8.6-8.7z"/>
			</g>
		</g>
	</g>
</svg>